<svg xmlns="http://www.w3.org/2000/svg" viewBox="0 0 1200 760"><defs><linearGradient id="bg" x1="0" x2="1"><stop stop-color="#111820"/><stop offset="1" stop-color="#2f3b44"/></linearGradient><filter id="s"><feDropShadow dx="0" dy="30" stdDeviation="25" flood-color="#000" flood-opacity=".35"/></filter></defs><rect width="1200" height="760" fill="#f4f6f8"/><g filter="url(#s)" transform="translate(110 145)"><rect x="0" y="355" width="980" height="70" rx="8" fill="#070b0f"/><rect x="35" y="0" width="920" height="385" rx="18" fill="url(#bg)" stroke="#101820" stroke-width="8"/><rect x="330" y="55" width="360" height="250" rx="8" fill="#ff8a00" opacity=".95"/><rect x="70" y="55" width="190" height="250" rx="8" fill="#18212a"/><rect x="100" y="95" width="100" height="72" rx="10" fill="#05080b" stroke="#59636c" stroke-width="6"/><rect x="770" y="55" width="120" height="250" rx="8" fill="#121a22"/><g fill="#070b0f"><rect x="792" y="75" width="78" height="9" rx="4"/><rect x="792" y="97" width="78" height="9" rx="4"/><rect x="792" y="119" width="78" height="9" rx="4"/><rect x="792" y="141" width="78" height="9" rx="4"/><rect x="792" y="163" width="78" height="9" rx="4"/><rect x="792" y="185" width="78" height="9" rx="4"/><rect x="792" y="207" width="78" height="9" rx="4"/><rect x="792" y="229" width="78" height="9" rx="4"/><rect x="792" y="251" width="78" height="9" rx="4"/><rect x="792" y="273" width="78" height="9" rx="4"/></g><text x="435" y="170" font-family="Arial" font-size="74" font-weight="900" fill="white" transform="skewX(-12)">MKT</text><text x="452" y="215" font-family="Arial" font-size="28" font-weight="700" letter-spacing="5" fill="white">GENERATORS</text><text x="70" y="510" font-family="Arial" font-size="46" font-weight="900" fill="#111820">OPEN DIESEL GENERATOR SET</text></g></svg>